<svg width="180" height="180" viewBox="0 0 180 180" fill="none" xmlns="http://www.w3.org/2000/svg">
  <!-- Background with rounded corners -->
  <rect width="180" height="180" rx="40" fill="url(#gradient)" />
  
  <!-- Main wrench icon -->
  <path 
    d="M110.7 47.25a7.5 7.5 0 0 0 0 10.61l12 12a7.5 7.5 0 0 0 10.61 0l28.3-28.3a45 45 0 0 1-59.7 59.7L50.4 152.75a16 16 0 0 1-22.6-22.6L79.25 78.64a45 45 0 0 1 59.7-59.7L110.7 47.25z" 
    fill="white" 
    stroke="white" 
    strokeWidth="3"
  />
  
  <!-- Decorative spark -->
  <circle cx="140" cy="40" r="12" fill="#FFC107" />
  <path d="M140 28l4.5 12.5L157 40l-12.5 4.5L140 57l-4.5-12.5L123 40l12.5-4.5L140 28z" fill="white" />
  
  <!-- Small accent dot -->
  <circle cx="45" cy="140" r="8" fill="#10B981" />
  
  <!-- Additional decorative elements for larger size -->
  <circle cx="150" cy="130" r="4" fill="white" opacity="0.6" />
  <circle cx="30" cy="50" r="3" fill="white" opacity="0.4" />
  
  <defs>
    <linearGradient id="gradient" x1="0%" y1="0%" x2="100%" y2="100%">
      <stop offset="0%" stopColor="#3B82F6" />
      <stop offset="50%" stopColor="#2563EB" />
      <stop offset="100%" stopColor="#1D4ED8" />
    </linearGradient>
  </defs>
</svg>
