<svg width="32" height="32" viewBox="0 0 32 32" fill="none" xmlns="http://www.w3.org/2000/svg">
  <!-- Background circle with gradient -->
  <circle cx="16" cy="16" r="16" fill="url(#gradient)" />
  
  <!-- Wrench icon -->
  <path 
    d="M19.6 8.4a1.33 1.33 0 0 0 0 1.87l2.13 2.13a1.33 1.33 0 0 0 1.87 0l5.02-5.02a8 8 0 0 1-10.59 10.59L9.21 26.79a2.83 2.83 0 0 1-4-4L14.03 14a8 8 0 0 1 10.59-10.59L19.6 8.43z" 
    fill="white" 
    stroke="white" 
    strokeWidth="1"
  />
  
  <!-- Spark -->
  <circle cx="25" cy="7" r="2" fill="#FFC107" />
  <path d="M25 5l0.75 2.25L28 7l-2.25 0.75L25 10l-0.75-2.25L22 7l2.25-0.75L25 5z" fill="white" />
  
  <!-- Small accent dot -->
  <circle cx="8" cy="25" r="1.5" fill="#10B981" />
  
  <defs>
    <linearGradient id="gradient" x1="0%" y1="0%" x2="100%" y2="100%">
      <stop offset="0%" stopColor="#3B82F6" />
      <stop offset="100%" stopColor="#1D4ED8" />
    </linearGradient>
  </defs>
</svg>
